# xmcd
#
# Track frame offsets:
# 150
# 14119
# 29059
#
# Disc length: 647 seconds
#
# Revision: 1
# Processed by: cddbd v1.5.2PL0 Copyright (c) Steve Scherf et al.
# Submitted via: CedeCatalogueitor 2.6.0.6 http://personales.ya.com/cdcatalogueitor
#
DISCID=25028503
DTITLE=Lek Mun - Lek Mun
DYEAR=1900
DGENRE=
TTITLE0=Let The Phone Ring
TTITLE1=Dark
TTITLE2=Here To Show You My Fears
EXTD=
EXTT0=
EXTT1=
EXTT2=
PLAYORDER=
